<svg width="16" height="12" viewBox="0 0 16 12" fill="none" xmlns="http://www.w3.org/2000/svg">
<path d="M15.9023 5.76466L10.9023 0.764656C10.7721 0.634438 10.5612 0.634438 10.431 0.764656C10.3008 0.894875 10.3008 1.10581 10.431 1.236L14.862 5.667H0.333344C0.149094 5.667 0 5.81609 0 6.00034C0 6.18459 0.149094 6.33369 0.333344 6.33369H14.862L10.431 10.7647C10.3008 10.8949 10.3008 11.1058 10.431 11.236C10.4961 11.3011 10.5814 11.3337 10.6667 11.3337C10.752 11.3337 10.8372 11.3011 10.9024 11.236L15.9024 6.236C16.0326 6.10581 16.0326 5.89487 15.9023 5.76466Z" fill="#6C6D70"/>
</svg>
